<svg width="26" height="27" viewBox="0 0 26 27" fill="none" xmlns="http://www.w3.org/2000/svg">
<path d="M15.0634 4.4108L10.7595 2.96997V22.5891L15.0634 24.03V4.4108V4.4108Z" fill="#DCAA37"/>
<path d="M22.7781 3.48988C22.2165 3.08512 21.4961 2.97632 20.8413 3.19738L17.2153 4.41071V24.0299L22.197 22.3615C23.0778 22.0672 23.672 21.2376 23.6711 20.3032V5.25571C23.6739 4.55649 23.3413 3.89892 22.7781 3.48988Z" fill="#DCAA37"/>
<path d="M8.60765 2.96997L3.62594 4.6383C2.74519 4.93263 2.15103 5.76228 2.15187 6.69664V21.7441C2.14912 22.4434 2.48168 23.1009 3.04492 23.51C3.41496 23.768 3.85369 23.9077 4.3038 23.9108C4.53416 23.9128 4.76324 23.8762 4.98166 23.8025L8.60765 22.5891V2.96997Z" fill="#DCAA37"/>
</svg>
