<svg width="26" height="27" viewBox="0 0 26 27" fill="none" xmlns="http://www.w3.org/2000/svg">
<path fill-rule="evenodd" clip-rule="evenodd" d="M17.3334 2.66675H8.66675C6.87182 2.66675 5.41675 4.12182 5.41675 5.91675V21.0834C5.41675 22.8783 6.87182 24.3334 8.66675 24.3334H17.3334C19.1283 24.3334 20.5834 22.8783 20.5834 21.0834V5.91675C20.5834 4.12182 19.1283 2.66675 17.3334 2.66675ZM13.7692 20.7692C13.6639 20.8649 13.543 20.9419 13.4117 20.9967C13.0093 21.1578 12.5496 21.0635 12.2431 20.757C11.9366 20.4505 11.8423 19.9908 12.0034 19.5884C12.055 19.4554 12.1323 19.3339 12.2309 19.2309C12.4851 18.9659 12.8561 18.8476 13.2167 18.9167L13.4117 18.9817C13.4808 19.0055 13.5464 19.0382 13.6067 19.0792C13.6635 19.1192 13.7178 19.1627 13.7692 19.2092C13.8649 19.3145 13.9419 19.4355 13.9967 19.5667C14.1664 19.9702 14.0766 20.4361 13.7692 20.7476V20.7692ZM11.9167 8.08342H14.2134H14.2351C14.8334 8.08342 15.3184 7.59839 15.3184 7.00008C15.3184 6.40177 14.8334 5.91675 14.2351 5.91675H11.9167C11.3184 5.91675 10.8334 6.40177 10.8334 7.00008C10.8334 7.59839 11.3184 8.08342 11.9167 8.08342Z" fill="#DCAA37"/>
</svg>
